<?xml version="1.0" standalone="no"?>
<!DOCTYPE svg PUBLIC "-//W3C//DTD SVG 20010904//EN"
 "http://www.w3.org/TR/2001/REC-SVG-20010904/DTD/svg10.dtd">
<svg version="1.0" xmlns="http://www.w3.org/2000/svg"
 width="60.000000pt" height="60.000000pt" viewBox="0 0 512.000000 512.000000"
 preserveAspectRatio="xMidYMid meet">

<g transform="translate(0.000000,512.000000) scale(0.100000,-0.100000)"
fill="#52C1B6" stroke="none">
<path d="M466 4949 c-62 -15 -153 -68 -197 -116 -22 -24 -55 -74 -72 -111
l-32 -67 0 -1136 0 -1135 37 -76 c45 -91 103 -147 196 -191 l67 -32 468 -3
c257 -2 467 -6 467 -10 0 -4 -57 -165 -127 -359 l-128 -353 -228 0 -228 0 -26
-26 c-24 -24 -25 -30 -20 -92 9 -88 60 -194 123 -251 25 -24 75 -57 112 -74
l67 -32 542 -3 542 -3 20 -33 c36 -58 58 -61 183 -25 l109 33 56 -57 57 -56
-33 -109 c-27 -93 -30 -113 -20 -136 22 -48 279 -196 340 -196 27 0 45 13 113
85 l81 84 75 -20 75 -21 25 -105 c13 -58 31 -114 40 -125 21 -26 82 -37 210
-37 128 0 189 11 210 37 9 11 27 67 40 125 l25 105 75 21 75 20 81 -84 c68
-72 86 -85 113 -85 63 0 317 147 340 197 10 21 7 43 -20 135 l-33 109 57 56
56 57 109 -33 c93 -27 114 -30 135 -20 50 23 197 277 197 340 0 27 -13 44 -85
113 l-84 81 20 75 21 76 87 18 c111 24 146 39 163 68 18 33 18 343 0 376 -17
29 -52 44 -163 68 l-87 18 -21 76 -20 75 84 81 c72 68 85 86 85 113 0 63 -147
317 -197 340 -21 10 -43 7 -135 -20 l-109 -33 -56 57 -57 56 33 109 c39 135
37 143 -65 209 l-73 48 -3 755 -3 755 -32 67 c-44 93 -100 151 -191 196 l-76
37 -1675 2 c-990 0 -1692 -3 -1715 -8z m3368 -161 c55 -16 138 -99 154 -154 9
-31 12 -218 12 -728 l0 -686 -26 0 c-20 0 -46 -20 -108 -85 l-81 -84 -75 20
-76 21 -18 87 c-24 111 -39 146 -68 163 -16 9 -69 13 -188 13 -119 0 -172 -4
-188 -13 -29 -17 -44 -52 -68 -163 l-18 -87 -76 -21 -75 -20 -81 84 c-69 72
-86 85 -113 85 -65 0 -320 -149 -340 -198 -9 -21 -8 -38 4 -77 8 -28 15 -53
15 -57 0 -5 -364 -8 -810 -8 l-810 0 0 480 0 480 400 0 400 0 0 80 0 80 -400
0 -400 0 0 240 0 240 1360 0 1360 0 0 -480 0 -480 80 0 80 0 0 535 0 536 -25
24 -24 25 -1471 0 -1471 0 -24 -25 -25 -24 0 -856 0 -855 -160 0 -160 0 0 856
c0 643 3 867 12 898 15 51 99 137 148 153 53 17 3298 17 3354 1z m-370 -1665
c41 -178 23 -159 188 -204 194 -53 178 -55 272 44 l82 86 69 -41 c39 -23 72
-43 74 -44 2 -2 -10 -51 -28 -109 -18 -58 -30 -113 -26 -124 6 -21 199 -217
229 -233 14 -8 45 -3 128 22 59 18 110 31 112 29 1 -2 21 -35 43 -74 l41 -70
-85 -81 c-98 -92 -97 -89 -55 -234 12 -41 27 -94 33 -118 5 -24 18 -51 27 -60
10 -10 64 -28 125 -41 l107 -24 0 -87 0 -87 -107 -24 c-113 -25 -138 -40 -148
-86 -4 -16 -18 -68 -32 -118 -47 -163 -49 -156 50 -249 l85 -81 -40 -70 c-23
-38 -43 -72 -44 -74 -2 -2 -53 11 -112 29 -83 24 -114 30 -128 22 -25 -13
-213 -201 -226 -226 -8 -14 -2 -45 22 -128 18 -59 31 -110 29 -112 -2 -1 -35
-21 -74 -44 l-70 -40 -81 85 c-94 99 -78 97 -272 44 -165 -45 -147 -26 -188
-203 l-18 -78 -86 0 -87 0 -24 107 c-25 113 -40 138 -86 148 -16 4 -68 18
-118 32 -163 47 -156 49 -249 -50 l-81 -85 -70 40 c-38 23 -72 43 -74 44 -2 2
10 51 28 109 18 58 30 114 26 125 -7 21 -198 216 -229 232 -14 8 -46 2 -128
-22 -59 -18 -110 -31 -112 -29 -1 2 -21 36 -44 74 l-40 70 85 81 c98 92 97 89
55 234 -12 41 -27 94 -33 118 -5 24 -18 51 -28 61 -10 10 -62 27 -124 41
l-107 23 0 87 0 87 81 18 c126 27 148 35 159 55 13 25 70 235 77 284 5 38 4
41 -80 120 l-85 81 41 70 c22 39 42 72 43 74 2 2 53 -11 112 -29 83 -24 114
-30 128 -22 25 13 213 201 226 226 8 14 2 45 -22 128 -18 59 -31 110 -29 112
2 1 36 21 74 44 l70 40 81 -85 c79 -84 81 -85 120 -80 35 5 217 53 269 70 30
10 40 32 65 145 l23 102 87 0 86 0 18 -77z m-1386 -415 c-50 -40 -178 -277
-178 -329 0 -27 10 -42 57 -86 l58 -53 -744 0 c-555 0 -754 3 -785 12 -55 16
-138 99 -154 154 -7 24 -12 100 -12 178 l0 136 887 0 c711 0 884 -2 871 -12z
m292 -13 c-29 -31 -27 -30 -120 -1 l-75 24 109 1 109 1 -23 -25z m-336 -637
c-3 -13 -7 -23 -8 -24 0 0 -48 -11 -105 -24 -57 -14 -113 -31 -124 -40 -25
-21 -36 -83 -36 -210 0 -128 11 -189 37 -210 11 -9 67 -27 125 -40 l105 -25
16 -57 c9 -32 16 -60 16 -63 0 -3 -166 -5 -370 -5 -203 0 -370 3 -370 7 0 5
57 166 128 360 l127 353 233 0 233 0 -7 -22z m-124 -877 c-14 -27 -12 -71 5
-101 8 -14 14 -28 15 -32 0 -14 -918 -9 -964 4 -45 13 -146 105 -146 132 0 14
58 16 550 16 541 0 551 0 540 -19z"/>
<path d="M960 4240 l0 -80 80 0 80 0 0 80 0 80 -80 0 -80 0 0 -80z"/>
<path d="M1280 4240 l0 -80 80 0 80 0 0 80 0 80 -80 0 -80 0 0 -80z"/>
<path d="M1600 4240 l0 -80 80 0 80 0 0 80 0 80 -80 0 -80 0 0 -80z"/>
<path d="M2957 4162 c-26 -26 -47 -52 -47 -58 0 -5 38 -48 85 -94 l85 -85
-548 -5 -548 -5 -76 -37 c-91 -45 -147 -103 -191 -196 l-32 -67 -3 -287 -3
-288 80 0 81 0 0 256 c0 172 4 270 12 298 16 55 99 138 154 154 30 9 182 12
560 12 l519 0 -88 -88 c-48 -48 -87 -91 -87 -95 0 -8 101 -106 110 -107 3 0
81 76 173 168 150 151 167 172 167 202 0 30 -17 51 -167 202 -92 92 -172 168
-178 168 -6 0 -32 -22 -58 -48z"/>
<path d="M3211 2709 c-30 -5 -57 -11 -59 -14 -6 -5 17 -128 27 -143 5 -8 24
-8 74 0 l67 11 0 63 c0 101 0 101 -109 83z"/>
<path d="M3556 2630 c-9 -38 -16 -73 -16 -79 0 -9 129 -57 134 -50 7 10 56
131 56 139 0 7 -45 24 -147 55 -7 2 -18 -22 -27 -65z"/>
<path d="M2844 2569 c-88 -56 -88 -56 -51 -101 17 -22 39 -50 48 -61 17 -21
17 -21 77 19 l61 39 -37 67 c-20 37 -39 68 -43 68 -3 0 -27 -14 -55 -31z"/>
<path d="M3905 2449 l-47 -60 52 -49 53 -49 59 51 59 51 -58 59 c-31 32 -60
58 -64 58 -3 0 -28 -27 -54 -61z"/>
<path d="M2540 2258 c-22 -35 -40 -68 -40 -75 0 -8 119 -73 135 -73 2 0 12 15
23 33 11 19 27 45 36 60 l17 25 -53 39 c-29 22 -59 43 -65 47 -9 5 -26 -14
-53 -56z"/>
<path d="M3245 2308 c-90 -17 -204 -80 -279 -154 -299 -300 -175 -792 234
-930 76 -26 244 -26 320 0 185 62 314 192 376 376 26 76 26 244 0 320 -53 156
-153 274 -289 339 -120 58 -234 73 -362 49z m279 -186 c91 -42 149 -100 194
-190 35 -72 37 -81 37 -172 0 -91 -2 -100 -37 -172 -45 -91 -103 -147 -196
-191 -61 -29 -76 -32 -162 -32 -86 0 -101 3 -162 32 -93 44 -151 100 -196 191
-35 72 -37 81 -37 171 0 87 3 102 32 163 40 85 97 147 172 186 78 42 122 52
213 48 61 -3 92 -11 142 -34z"/>
<path d="M4149 2145 l-67 -34 22 -60 c12 -33 24 -63 28 -66 9 -9 139 27 144
40 5 13 -46 155 -56 155 -3 -1 -35 -16 -71 -35z"/>
<path d="M2407 1878 c-4 -29 -7 -68 -7 -85 l0 -33 79 0 78 0 6 67 c7 76 6 78
-62 88 -25 3 -55 9 -67 11 -19 5 -22 0 -27 -48z"/>
<path d="M4157 1693 c-4 -37 -3 -70 1 -74 8 -8 143 -32 148 -27 2 2 6 41 10
86 l7 82 -80 0 -80 0 -6 -67z"/>
<path d="M2497 1522 c-56 -16 -58 -18 -53 -44 8 -41 47 -128 57 -128 5 0 37
13 73 29 l64 30 -23 63 c-26 72 -30 74 -118 50z"/>
<path d="M4045 1349 c-20 -33 -35 -61 -34 -63 2 -1 30 -21 62 -44 31 -24 62
-40 67 -37 11 7 80 120 80 132 0 7 -121 73 -134 73 -2 0 -20 -27 -41 -61z"/>
<path d="M2696 1177 l-58 -52 62 -59 c34 -32 65 -55 69 -50 4 5 27 33 51 62
l43 54 -53 49 c-29 27 -54 49 -54 49 -1 0 -27 -24 -60 -53z"/>
<path d="M3799 1092 l-57 -37 34 -68 c19 -37 38 -67 43 -67 15 0 131 80 131
90 0 11 -81 118 -90 119 -3 1 -30 -16 -61 -37z"/>
<path d="M3017 955 c-15 -36 -27 -69 -27 -74 0 -10 114 -51 141 -51 13 0 21
16 33 69 9 39 16 72 16 75 0 4 -118 46 -130 46 -4 0 -18 -29 -33 -65z"/>
<path d="M3458 968 l-58 -10 0 -80 0 -81 53 7 c97 12 117 18 117 33 0 34 -33
143 -44 142 -6 -1 -37 -6 -68 -11z"/>
</g>
</svg>